<?xml version="1.0" encoding="us-ascii" standalone="no"?><svg xmlns="http://www.w3.org/2000/svg" xmlns:xlink="http://www.w3.org/1999/xlink" contentStyleType="text/css" height="610px" preserveAspectRatio="none" style="width:465px;height:610px;background:#FFFFFF;" version="1.1" viewBox="0 0 465 610" width="465px" zoomAndPan="magnify"><defs/><g><!--class GameManager--><g id="elem_GameManager"><rect codeLine="2" fill="#F1F1F1" height="224.0938" id="GameManager" rx="2.5" ry="2.5" style="stroke:#181818;stroke-width:0.5;" width="451" x="7" y="7"/><ellipse cx="181.25" cy="23" fill="#ADD1B2" rx="11" ry="11" style="stroke:#181818;stroke-width:1.0;"/><path d="M184.0156,18.875 Q184.1719,18.6563 184.3594,18.5469 Q184.5469,18.4375 184.7656,18.4375 Q185.1406,18.4375 185.375,18.7031 Q185.6094,18.9531 185.6094,19.5625 L185.6094,21.0156 Q185.6094,21.625 185.375,21.8906 Q185.1406,22.1563 184.7656,22.1563 Q184.4219,22.1563 184.2188,21.9531 Q184.0156,21.7656 183.9063,21.25 Q183.8594,20.8906 183.6719,20.7031 Q183.3438,20.3281 182.7344,20.1094 Q182.125,19.8906 181.5,19.8906 Q180.7344,19.8906 180.0938,20.2188 Q179.4688,20.5469 178.9688,21.2969 Q178.4844,22.0469 178.4844,23.0781 L178.4844,24.1719 Q178.4844,25.4063 179.375,26.2344 Q180.2656,27.0469 181.8594,27.0469 Q182.7969,27.0469 183.4531,26.7969 Q183.8438,26.6406 184.2656,26.2031 Q184.5313,25.9375 184.6719,25.8594 Q184.8281,25.7813 185.0313,25.7813 Q185.3594,25.7813 185.6094,26.0469 Q185.875,26.2969 185.875,26.6406 Q185.875,26.9844 185.5313,27.3906 Q185.0313,27.9688 184.2344,28.2969 Q183.1563,28.75 181.8594,28.75 Q180.3438,28.75 179.1406,28.125 Q178.1563,27.625 177.4688,26.5625 Q176.7813,25.4844 176.7813,24.2031 L176.7813,23.0469 Q176.7813,21.7188 177.3906,20.5781 Q178.0156,19.4219 179.1094,18.8125 Q180.2031,18.1875 181.4375,18.1875 Q182.1719,18.1875 182.8125,18.3594 Q183.4688,18.5156 184.0156,18.875 Z " fill="#000000"/><text fill="#000000" font-family="sans-serif" font-size="14" lengthAdjust="spacing" textLength="94" x="201.75" y="28.7285">GameManager</text><line style="stroke:#181818;stroke-width:0.5;" x1="8" x2="457" y1="39" y2="39"/><rect fill="none" height="6" style="stroke:#C82930;stroke-width:1.0;" width="6" x="15" y="50.3047"/><text fill="#000000" font-family="sans-serif" font-size="14" lengthAdjust="spacing" textLength="118" x="27" y="57.5332">board: Frame[9][9]</text><line style="stroke:#181818;stroke-width:0.5;" x1="8" x2="457" y1="64.6094" y2="64.6094"/><ellipse cx="18" cy="78.9141" fill="#84BE84" rx="3" ry="3" style="stroke:#038048;stroke-width:1.0;"/><text fill="#000000" font-family="sans-serif" font-size="14" lengthAdjust="spacing" textLength="104" x="27" y="83.1426">GameManager()</text><ellipse cx="18" cy="96.5234" fill="#84BE84" rx="3" ry="3" style="stroke:#038048;stroke-width:1.0;"/><text fill="#000000" font-family="sans-serif" font-size="14" lengthAdjust="spacing" textLength="295" x="27" y="100.752">setBoard(Frame predefined_board[9][9]) : void</text><ellipse cx="18" cy="114.1328" fill="#84BE84" rx="3" ry="3" style="stroke:#038048;stroke-width:1.0;"/><text fill="#000000" font-family="sans-serif" font-size="14" lengthAdjust="spacing" textLength="143" x="27" y="118.3613">generateBoard() : void</text><ellipse cx="18" cy="131.7422" fill="#84BE84" rx="3" ry="3" style="stroke:#038048;stroke-width:1.0;"/><text fill="#000000" font-family="sans-serif" font-size="14" lengthAdjust="spacing" textLength="166" x="27" y="135.9707">displayBoard() : std::string</text><ellipse cx="18" cy="149.3516" fill="#84BE84" rx="3" ry="3" style="stroke:#038048;stroke-width:1.0;"/><text fill="#000000" font-family="sans-serif" font-size="14" lengthAdjust="spacing" textLength="316" x="27" y="153.5801">addForbiddenDigitToColumn(x: int, digit: int) : void</text><ellipse cx="18" cy="166.9609" fill="#84BE84" rx="3" ry="3" style="stroke:#038048;stroke-width:1.0;"/><text fill="#000000" font-family="sans-serif" font-size="14" lengthAdjust="spacing" textLength="296" x="27" y="171.1895">addForbiddenDigitToRow(y: int, digit: int) : void</text><ellipse cx="18" cy="184.5703" fill="#84BE84" rx="3" ry="3" style="stroke:#038048;stroke-width:1.0;"/><text fill="#000000" font-family="sans-serif" font-size="14" lengthAdjust="spacing" textLength="262" x="27" y="188.7988">getDigitsOfColumn(x: int): std::vector&lt;int&gt;</text><ellipse cx="18" cy="202.1797" fill="#84BE84" rx="3" ry="3" style="stroke:#038048;stroke-width:1.0;"/><text fill="#000000" font-family="sans-serif" font-size="14" lengthAdjust="spacing" textLength="242" x="27" y="206.4082">getDigitsOfLine(y: int): std::vector&lt;int&gt;</text><ellipse cx="18" cy="219.7891" fill="#84BE84" rx="3" ry="3" style="stroke:#038048;stroke-width:1.0;"/><text fill="#000000" font-family="sans-serif" font-size="14" lengthAdjust="spacing" textLength="425" x="27" y="224.0176">getDigitsOfSquare(squareX: int, squareY: int): std::vector&lt;Frame *&gt;</text></g><!--class Frame--><g id="elem_Frame"><rect codeLine="17" fill="#F1F1F1" height="312.1406" id="Frame" rx="2.5" ry="2.5" style="stroke:#181818;stroke-width:0.5;" width="357" x="54" y="291"/><ellipse cx="207.75" cy="307" fill="#ADD1B2" rx="11" ry="11" style="stroke:#181818;stroke-width:1.0;"/><path d="M210.5156,302.875 Q210.6719,302.6563 210.8594,302.5469 Q211.0469,302.4375 211.2656,302.4375 Q211.6406,302.4375 211.875,302.7031 Q212.1094,302.9531 212.1094,303.5625 L212.1094,305.0156 Q212.1094,305.625 211.875,305.8906 Q211.6406,306.1563 211.2656,306.1563 Q210.9219,306.1563 210.7188,305.9531 Q210.5156,305.7656 210.4063,305.25 Q210.3594,304.8906 210.1719,304.7031 Q209.8438,304.3281 209.2344,304.1094 Q208.625,303.8906 208,303.8906 Q207.2344,303.8906 206.5938,304.2188 Q205.9688,304.5469 205.4688,305.2969 Q204.9844,306.0469 204.9844,307.0781 L204.9844,308.1719 Q204.9844,309.4063 205.875,310.2344 Q206.7656,311.0469 208.3594,311.0469 Q209.2969,311.0469 209.9531,310.7969 Q210.3438,310.6406 210.7656,310.2031 Q211.0313,309.9375 211.1719,309.8594 Q211.3281,309.7813 211.5313,309.7813 Q211.8594,309.7813 212.1094,310.0469 Q212.375,310.2969 212.375,310.6406 Q212.375,310.9844 212.0313,311.3906 Q211.5313,311.9688 210.7344,312.2969 Q209.6563,312.75 208.3594,312.75 Q206.8438,312.75 205.6406,312.125 Q204.6563,311.625 203.9688,310.5625 Q203.2813,309.4844 203.2813,308.2031 L203.2813,307.0469 Q203.2813,305.7188 203.8906,304.5781 Q204.5156,303.4219 205.6094,302.8125 Q206.7031,302.1875 207.9375,302.1875 Q208.6719,302.1875 209.3125,302.3594 Q209.9688,302.5156 210.5156,302.875 Z " fill="#000000"/><text fill="#000000" font-family="sans-serif" font-size="14" lengthAdjust="spacing" textLength="41" x="228.25" y="312.7285">Frame</text><line style="stroke:#181818;stroke-width:0.5;" x1="55" x2="410" y1="323" y2="323"/><text fill="#000000" font-family="sans-serif" font-size="14" lengthAdjust="spacing" textLength="49" x="60" y="341.5332">digit: int</text><text fill="#000000" font-family="sans-serif" font-size="14" lengthAdjust="spacing" textLength="206" x="60" y="359.1426">forbidden_digits: std::vector&lt;int&gt;</text><line style="stroke:#181818;stroke-width:0.5;" x1="55" x2="410" y1="366.2188" y2="366.2188"/><text fill="#000000" font-family="sans-serif" font-size="14" lengthAdjust="spacing" textLength="51" x="60" y="384.752">Frame()</text><text fill="#000000" font-family="sans-serif" font-size="14" lengthAdjust="spacing" textLength="100" x="60" y="402.3613">Frame(digit: int)</text><text fill="#000000" font-family="sans-serif" font-size="14" lengthAdjust="spacing" textLength="267" x="60" y="419.9707">Frame(squareX: int, squareY: int, digit: int)</text><text fill="#000000" font-family="sans-serif" font-size="14" lengthAdjust="spacing" textLength="4" x="60" y="437.5801">&#160;</text><text fill="#000000" font-family="sans-serif" font-size="14" lengthAdjust="spacing" textLength="81" x="60" y="455.1895">getDigit(): int</text><text fill="#000000" font-family="sans-serif" font-size="14" lengthAdjust="spacing" textLength="169" x="60" y="472.7988">getDigitString() : std::string</text><text fill="#000000" font-family="sans-serif" font-size="14" lengthAdjust="spacing" textLength="111" x="60" y="490.4082">getSquareX() : int</text><text fill="#000000" font-family="sans-serif" font-size="14" lengthAdjust="spacing" textLength="112" x="60" y="508.0176">getSquareY() : int</text><text fill="#000000" font-family="sans-serif" font-size="14" lengthAdjust="spacing" textLength="239" x="60" y="525.627">getForbiddenDigits() : std::vector&lt;int&gt;</text><text fill="#000000" font-family="sans-serif" font-size="14" lengthAdjust="spacing" textLength="4" x="60" y="543.2363">&#160;</text><text fill="#000000" font-family="sans-serif" font-size="14" lengthAdjust="spacing" textLength="140" x="60" y="560.8457">setDigit(digit: int): void</text><text fill="#000000" font-family="sans-serif" font-size="14" lengthAdjust="spacing" textLength="345" x="60" y="578.4551">setSquareCoordinates(squareX: int, squareY: int): void</text><text fill="#000000" font-family="sans-serif" font-size="14" lengthAdjust="spacing" textLength="210" x="60" y="596.0645">addForbiddenDigit(digit: int): void</text></g><!--reverse link GameManager to Frame--><g id="link_GameManager_Frame"><path codeLine="37" d="M232.5,243.28 C232.5,262.46 232.5,270.71 232.5,290.8 " fill="none" id="GameManager-backto-Frame" style="stroke:#181818;stroke-width:1.0;"/><polygon fill="#181818" points="232.5,231.28,228.5,237.28,232.5,243.28,236.5,237.28,232.5,231.28" style="stroke:#181818;stroke-width:1.0;"/><text fill="#000000" font-family="sans-serif" font-size="13" lengthAdjust="spacing" textLength="7" x="225.2758" y="252.4888">1</text><text fill="#000000" font-family="sans-serif" font-size="13" lengthAdjust="spacing" textLength="14" x="218.1609" y="280.3468">81</text></g><!--SRC=[ZLFBJiCm4BpdAwoSaa8Ft212FL1KBY0aog4LGfLRRoDBhLsyRg52_3jcxH3dmIEA57jsPtQzuwms797Ty2tSSSLBCCbxmjmpP4lDZIZOnBZOqyMpUnEAdCJPMHum17lrHSWed-qC25XB1M91EbuWPmKxQ2a2fmG5Xblmn5PGIDnj-B6EeHL5WTP8LOOKBiH4cwKK0jIrBALzr6EzsMzLzbOmgUof4t4ehLlgFTG7_PeT_-ALO2aTxzUDKddexm0hgysbGqPTngsRHoZnh_pfovuRo90-iz2QtytxLFpe1wFa8qbMv2iXmT7wJBHTLyTVK01x6g8yaWWs-tKqd0ZzkSl6EBreTSWihnkgi2bPt6kvI_4pcL4uOdfuteQR7cCjsZacLXr5lKREOrLYhBKHKhbRYxyRyqtjNBMU4iwmwATYwLdA1iCXIy_Tmdlu2G00]--></g></svg>